<?xml version="1.0" encoding="UTF-8"?>
<svg id="Layer_1" data-name="Layer 1" xmlns="http://www.w3.org/2000/svg" viewBox="0 0 362.29 348.2">
  <defs>
    <style>
      .cls-1 {
        fill: #2e3431;
      }

      .cls-2 {
        fill: #e7e0d5;
      }
    </style>
  </defs>
  <path class="cls-2" d="M362.28,348.2H.03S0,.02,0,.02l362.29-.02v348.2ZM358.16,343.84l-.07-339.66H4.3s-.03,339.7-.03,339.7l353.9-.04Z"/>
  <path class="cls-1" d="M227.63,162.25l-43.96-44.02-.27,44.21,44.23-.18ZM179.01,162.55l-.11-31.54-30.71.06.1,31.34,30.72.14ZM178.89,229.2l-.06-62.07h-44.35s-.09,62.03-.09,62.03l44.49.05ZM204.63,229.25l23.38-.14-.11-61.93-44.09-.1.13,31.01,20.5.14.19,31.02Z"/>
  <polygon class="cls-2" points="178.89 229.2 134.4 229.15 134.49 167.11 178.83 167.12 178.89 229.2"/>
  <polygon class="cls-2" points="204.63 229.25 204.44 198.22 183.94 198.08 183.81 167.07 227.9 167.17 228.01 229.1 204.63 229.25"/>
  <polygon class="cls-2" points="227.63 162.25 183.4 162.44 183.67 118.23 227.63 162.25"/>
  <polygon class="cls-2" points="179.01 162.55 148.29 162.41 148.19 131.07 178.89 131.01 179.01 162.55"/>
</svg>