<?xml version="1.0" encoding="UTF-8"?>
<svg id="Layer_1" data-name="Layer 1" xmlns="http://www.w3.org/2000/svg" viewBox="0 0 293.62 348.2">
  <defs>
    <style>
      .cls-1 {
        fill: #407277;
      }
    </style>
  </defs>
  <path class="cls-1" d="M292.42,138.07L154.53,0l-.83,138.65,138.72-.58ZM139.93,139.01l-.36-98.91-96.31.18.32,98.29,96.35.44ZM139.54,348.04l-.17-194.69-139.09-.04-.28,194.59,139.54.14ZM220.3,348.2l73.32-.45-.34-194.25-138.3-.33.41,97.27,64.3.45.6,97.31Z"/>
  <polygon class="cls-1" points="139.54 348.04 0 347.9 .28 153.3 139.37 153.35 139.54 348.04"/>
  <polygon class="cls-1" points="220.3 348.2 219.7 250.89 155.4 250.44 154.99 153.17 293.28 153.5 293.62 347.75 220.3 348.2"/>
  <polygon class="cls-1" points="292.42 138.07 153.7 138.65 154.53 0 292.42 138.07"/>
  <polygon class="cls-1" points="139.93 139.01 43.58 138.57 43.26 40.28 139.57 40.1 139.93 139.01"/>
</svg>